PathFileType	4	(X/Y/Z)	pose_F01_0-77.trc
DataRate	CameraRate	NumFrames	NumMarkers	Units	OrigDataRate	OrigDataStartFrame	OrigNumFrames
30	30	11	21	m	30	0	77
Frame#	Time	CHip			RHip			RKnee			RAnkle			RBigToe			RSmallToe			RHeel			LHip			LKnee			LAnkle			LBigToe			LSmallToe			LHeel			Neck			Nose			RShoulder			RElbow			RWrist			LShoulder			LElbow			LWrist			
		X1	Y1	Z1	X2	Y2	Z2	X3	Y3	Z3	X4	Y4	Z4	X5	Y5	Z5	X6	Y6	Z6	X7	Y7	Z7	X8	Y8	Z8	X9	Y9	Z9	X10	Y10	Z10	X11	Y11	Z11	X12	Y12	Z12	X13	Y13	Z13	X14	Y14	Z14	X15	Y15	Z15	X16	Y16	Z16	X17	Y17	Z17	X18	Y18	Z18	X19	Y19	Z19	X20	Y20	Z20	X21	Y21	Z21	
0	0.0	-0.24229094584030664	1.8845571838725261	-0.5479144299436898	-0.2601859307225578	1.8790565460390358	-0.4808249719817009	-0.25389241458619904	1.71054703243076	-0.430150946235337													-0.2315397773964234	1.8861508986898365	-0.6151593488107956	-0.21578114830735418	1.7389215895268375	-0.5876274594686777	-0.21876286972604617	1.590359745258262	-0.5660300985571185	-0.21600748324788524	1.5531773291938833	-0.6344320886994709	-0.21191424524044034	1.5640158634449568	-0.6434117816389814	-0.21780738091103605	1.576674976359966	-0.53949114744045	-0.23982439468915634	2.0537348722877065	-0.5514528364716393	-0.25043444907655643	2.1207367897533635	-0.592887616930387	-0.2645898721500041	2.0500914395135417	-0.4525126207900611	-0.26327340757575585	1.9565965412426132	-0.4247359607167824	-0.27949962834118863	1.878279140101538	-0.4153658149666519	-0.21191943684150624	2.057414452885488	-0.6420068083679116	-1.3980885378691013	1.8729252592250933	0.5998860832430065	-0.20234646274010537	1.893513990774355	-0.6799192215977332
1	0.03333333333333333	-0.2413325537302511	1.8810621793670146	-0.5445899021087797	-0.26005374655808317	1.8767998815679634	-0.48063714155797477	-0.2544131294969252	1.7132898733997508	-0.4321663855520861													-0.2254364108974043	1.8845837974620137	-0.6130620582774559	-0.21774117934624257	1.735437772465703	-0.5851265616108904	-0.21876381895202485	1.5902491866630306	-0.5659923569882177	-0.21930160568189042	1.5542973653824872	-0.6351101549700904	-0.21200436353577895	1.5640052013988601	-0.6433881628457696	-0.21780738091103605	1.576674976359966	-0.53949114744045	-0.23981943665332825	2.053655401383153	-0.551540561073554	-0.24846361565127562	2.1207292673994576	-0.5949489499784311	-0.2637336708130676	2.0502704095146806	-0.4576978098686226	-0.26353313528409056	1.9562496573253205	-0.42510459707619386	-0.2807005722378991	1.8737355008491081	-0.4179688083304301	-0.2119293357710327	2.0573340450268756	-0.6419683636598618	-1.3979220905459397	1.873538542863339	0.5994253730417126	-0.20232491456417712	1.8927103675627677	-0.6799839582842362
2	0.06666666666666667	-0.24037416162019554	1.877567174861503	-0.5412653742738696	-0.25992156239360853	1.874543217096891	-0.48044931113424866	-0.2549338444076513	1.7160327143687417	-0.43418182486883516													-0.2193330443983852	1.8830166962341908	-0.6109647677441161	-0.21970121038513096	1.7319539554045686	-0.5826256637531031	-0.21876476817800353	1.5901386280677992	-0.5659546154193169	-0.2225957281158956	1.555417401571091	-0.6357882212407099	-0.21209448183111757	1.5639945393527634	-0.6433645440525578	-0.21780738091103605	1.576674976359966	-0.53949114744045	-0.23981447861750016	2.0535759304785994	-0.5516282856754686	-0.2464927822259948	2.1207217450455516	-0.5970102830264751	-0.26287746947613105	2.0504493795158196	-0.46288299894718404	-0.26379286299242527	1.9559027734080279	-0.42547323343560534	-0.2819015161346096	1.8691918615966783	-0.42057180169420827	-0.21193923470055917	2.0572536371682633	-0.641929918951812	-1.3977556432227782	1.8741518265015848	0.5989646628404187	-0.20230336638824886	1.8919067443511803	-0.6800486949707392
3	0.1	-0.24136747954134802	1.8828527180783672	-0.5449024644319039	-0.26001018717273805	1.8769618065929472	-0.48080352855852154	-0.2554545593183774	1.7187755553377326	-0.4361972641855842													-0.22331505198540472	1.8852850053554795	-0.6152647581039535	-0.21959947689457102	1.7336992327391512	-0.5829421778721429	-0.21911514994714335	1.5894682173030097	-0.5654851349831035	-0.22164749013932702	1.5552812468794175	-0.6325558852759414	-0.21212450039016328	1.5640912066133537	-0.6432990245510605	-0.21780738091103605	1.576674976359966	-0.53949114744045	-0.2398004423477553	2.0536525886840096	-0.5515568638568538	-0.24650294601965317	2.120749610728139	-0.5970319434529341	-0.26189866591549227	2.050345814441054	-0.4597566474334144	-0.26347208974518754	1.9571427785331985	-0.4251409383296964	-0.2816154087508739	1.8746874765798134	-0.4212946428194166	-0.2118806342465543	2.057348931550337	-0.6419254448787779	-1.3981688959169472	1.8735487925790766	0.5998297926216767	-0.20149887595047683	1.8928770611205517	-0.6768703408770705
4	0.13333333333333333	-0.24143255929937257	1.8801001325687148	-0.5444978315119987	-0.2601647137806081	1.8756649587299323	-0.48059620542428116	-0.2559752742291035	1.7215183963067235	-0.4382127035023332													-0.22244250880144117	1.8850864652471093	-0.6121167939679429	-0.22004901795607934	1.7372459546081933	-0.5829008345161065	-0.21915291922427582	1.589578324391732	-0.5653735639566678	-0.22030888551823952	1.5546999236354289	-0.6383484074363358	-0.21307455870856945	1.564674530660326	-0.6465946595999202	-0.21780738091103605	1.576674976359966	-0.53949114744045	-0.23784740736720067	2.0537139538586997	-0.5536505244721256	-0.24647187483311886	2.120779095348507	-0.5970052148785983	-0.26187788896734343	2.0503330387549394	-0.45982150934446436	-0.2635308092967612	1.9589111417458602	-0.42557681645850526	-0.2814783770759993	1.877456278576189	-0.4217574574620499	-0.21100232789664256	2.057271855341295	-0.6389105578841304	-1.3978833354983904	1.8737536570560884	0.5994026221113826	-0.20124325183137692	1.8961375832398988	-0.6774297715351214
5	0.16666666666666666	-0.24065289930762776	1.8814274167612213	-0.5416367300912138	-0.2603236959761596	1.87723061797957	-0.48075050515804924	-0.2564959891398296	1.7242612372757145	-0.4402281428190823													-0.22255844618822923	1.88636867315253	-0.6122269484640274	-0.21961725290914724	1.7338505259587487	-0.5829518336985604	-0.2191716211241535	1.5899067818292267	-0.5653564760244066	-0.2212991458551635	1.553549454611806	-0.6327709409706146	-0.21192026891499954	1.5632656398556783	-0.6432364909486302	-0.21780738091103605	1.576674976359966	-0.53949114744045	-0.23980715682879533	2.0535983977697994	-0.5516618478981045	-0.24645237026118874	2.1208308570111094	-0.5970422330057517	-0.2619310615230785	2.0503285312446056	-0.45980655953560834	-0.26565446280813737	1.9584523393847297	-0.4238412327941392	-0.28352823159054724	1.8792760751185793	-0.4199489634987251	-0.21194052706504296	2.0582615111336846	-0.6424575329141569	-1.4005300859035401	1.8758046706055014	0.6027499613954758	-0.20139449828723066	1.894061414085484	-0.6772716928461391
6	0.2	-0.24169470019680075	1.8801878746842176	-0.5446354616594364	-0.2602770386443722	1.8771736149853802	-0.4808737006473614	-0.25701670405055577	1.7270040782447054	-0.44224358213583137													-0.2235712809712862	1.8852102429218456	-0.615368599539888	-0.21986380715266543	1.735894247104118	-0.5829472898076021	-0.2191136401947477	1.5893256589212994	-0.565462853895765	-0.2203139527185692	1.5548533400607787	-0.6382625476350239	-0.21118627519517888	1.5631565681035295	-0.6481328414984223	-0.21780738091103605	1.576674976359966	-0.53949114744045	-0.23786066770055234	2.053717974926131	-0.5536704453369202	-0.24734390777760756	2.1210076150682036	-0.5998586946753446	-0.26194656232301106	2.051536308765918	-0.4603123637563906	-0.26573467119799704	1.9610700584343597	-0.4246262592249128	-0.28196553206752467	1.8837219745694453	-0.4230120632373973	-0.21102346576019215	2.05835984672907	-0.6393602168735545	-1.397830356413069	1.8752041135170083	0.6000684568508926	-0.20207058818855744	1.8963530111712246	-0.6804711485910538
7	0.23333333333333334	-0.24183415023626484	1.881543848091612	-0.5448488737843092	-0.26032588758518793	1.877400312178839	-0.48084033672913373	-0.25753741896128185	1.7297469192136963	-0.4442590214525804													-0.22371361773578258	1.8862847674485934	-0.6155819407860176	-0.2196110581802017	1.7341058349392808	-0.5829926734794985	-0.21908981742440994	1.5894499149826267	-0.5654354648310269	-0.22258972507564048	1.5553354469100018	-0.6357448857500515	-0.21209982479016967	1.5640008297241619	-0.6433712042623015	-0.21780738091103605	1.576674976359966	-0.53949114744045	-0.2378619501758726	2.053661669857579	-0.5537617236834186	-0.2464383054798757	2.1208934882165242	-0.5970616667994952	-0.2618630507366032	2.0503524895208063	-0.45990620776273405	-0.26533908571735065	1.9628595534723157	-0.42432658302266263	-0.2818166026758278	1.8850972887520656	-0.42300557211743794	-0.2118923193762006	2.0573253728034664	-0.6420095193063045	-1.395523443879868	1.8740631347055268	0.5967919133222436	-0.199879605094025	1.895159201921059	-0.6825760273220647
8	0.26666666666666666	-0.2427653955407381	1.8819319088201818	-0.5481215893037873	-0.2613631632780691	1.8787543588660955	-0.48426522000071276	-0.25805813387200793	1.7324897601826872	-0.4462744607693294													-0.2225571254613317	1.886378956709924	-0.6208981072772599	-0.2199908354498628	1.7341136569668312	-0.5826251763038762	-0.21887249254627444	1.590663395859051	-0.5659211903005376	-0.21937893748706272	1.5550214779984415	-0.6347597150340246	-0.2098038192437983	1.5636354030547155	-0.6455128926392788	-0.21780738091103605	1.576674976359966	-0.53949114744045	-0.23783908069057297	2.0537044025360482	-0.5537877170715394	-0.24726303433880786	2.1210899674030426	-0.5999355900475294	-0.26190760791185075	2.0503192159943207	-0.45986281583322286	-0.2663766301577212	1.957338752731668	-0.42626154398455046	-0.2836347995719964	1.8785208101170945	-0.42837764865906075	-0.2126836799462884	2.0575963180326955	-0.6450051239329323	-1.398274093016246	1.8743487906313745	0.6011059843040822	-0.20021178152627617	1.8942753241913213	-0.682533589448103
9	0.3	-0.24346522671561915	1.8821536003294992	-0.5512572151311531	-0.26110549730803867	1.8784157134572537	-0.48424234849396275	-0.25857884878273407	1.735232601151678	-0.4482899000860785													-0.22435959391318627	1.885869812855992	-0.6188370474888918	-0.21809096012098686	1.737975612436597	-0.5850847875653082	-0.21891583316663613	1.591261105956593	-0.5659147470791797	-0.2224696490802436	1.5551652963412104	-0.6358066628075755	-0.21195937550224547	1.5636155793039226	-0.6433915105271764	-0.21780738091103605	1.576674976359966	-0.53949114744045	-0.23876763283244595	2.053805679739822	-0.5568147725528325	-0.24527574888189507	2.121227445702803	-0.6020864276934766	-0.26285332047979865	2.0528528820936036	-0.4633255756980149	-0.26462439195522514	1.9655386618224482	-0.4223041335166903	-0.27715714079798404	1.8898421211267238	-0.43380213211559626	-0.21277303006618192	2.0583467977829066	-0.64548757822523	-0.20252424263548016	1.973885553482863	-0.6589359904845038	-0.19902736142591007	1.8947213396615843	-0.6881920021150137
10	0.3333333333333333	-0.24309442765913405	1.8837638766945894	-0.5513959196259435	-0.25895952911473763	1.8781196297885456	-0.48632790239164775	-0.2590263591242977	1.7336941540049537	-0.45213228230464053													-0.22502778799926643	1.8855899420565663	-0.6217603243098567	-0.21796147950474207	1.7341748585483636	-0.584866834009759	-0.21913249864925807	1.5895697522485945	-0.5654595430794592	-0.22263352963736605	1.5557402218905174	-0.6357858891592961	-0.21219360169509777	1.5644538872539915	-0.6433753950462967	-0.21780738091103605	1.576674976359966	-0.53949114744045	-0.2376126425415433	2.055020695689963	-0.5619562390044252	-0.24514161971486928	2.1231175985941633	-0.6027704629894229	-0.26378540874090584	2.0530088360456697	-0.46659593274897937	-0.2652979389161881	1.9660692065508392	-0.4168333797632743	-0.27740120283277103	1.8985126673523127	-0.4439553964365965	-0.21160775744429314	2.0583636806367744	-0.6507113854811142	-0.19581523213411337	1.979447639710202	-0.6662712173769801	-0.19667121718631522	1.9105255452309438	-0.6928623159625129
